<svg xmlns="http://www.w3.org/2000/svg" version="1.1" xmlns:xlink="http://www.w3.org/1999/xlink" xmlns:svgjs="http://svgjs.dev/svgjs" width="1000" height="1000"><style>
    #light-icon {
      display: inline;
    }
    #dark-icon {
      display: none;
    }

    @media (prefers-color-scheme: dark) {
      #light-icon {
        display: none;
      }
      #dark-icon {
        display: inline;
      }
    }
  </style><g id="light-icon"><svg xmlns="http://www.w3.org/2000/svg" version="1.1" xmlns:xlink="http://www.w3.org/1999/xlink" xmlns:svgjs="http://svgjs.dev/svgjs" width="1000" height="1000"><g clip-path="url(#SvgjsClipPath1239)"><rect width="1000" height="1000" fill="#000000"></rect><g transform="matrix(0.7534983853606028,0,0,0.7534983853606028,150,277.71797631862216)"><svg xmlns="http://www.w3.org/2000/svg" version="1.1" xmlns:xlink="http://www.w3.org/1999/xlink" xmlns:svgjs="http://svgjs.dev/svgjs" width="929" height="590"><svg width="929" height="590" viewBox="0 0 929 590" fill="none" xmlns="http://www.w3.org/2000/svg">
<path d="M244.463 0.421718C237.813 1.22967 228.614 3.59138 222.213 6.20168C215.501 8.93629 90.5773 80.2225 84.4243 84.8216C74.9152 91.9067 66.587 101.726 61.3042 112.043C57.7616 118.88 5.92774 237.152 4.18752 242.434C0.396314 253.684 -0.971006 268.6 0.707069 279.787C2.6959 292.403 7.35722 304.46 14.1938 314.653C18.2958 320.619 26.624 329.382 32.5905 333.857C36.506 336.84 208.478 436.529 217.614 441.191C234.332 449.643 257.95 451.508 276.657 445.976C280.2 444.92 283.245 443.739 291.822 440.01C292.381 439.823 292.63 444.857 292.754 461.079L292.941 482.396L294.867 487.803C295.924 490.786 298.161 495.385 299.839 498.058C303.258 503.589 311.524 512.166 317.49 516.33C323.022 520.246 419.107 575.559 425.384 578.48C435.515 583.204 446.951 586.498 460.748 588.797C471.189 590.537 497.044 590.351 507.672 588.486C521.407 586.125 534.273 582.209 543.409 577.61C548.94 574.876 896.985 374.255 901.709 371.085C913.02 363.627 921.473 353.87 925.637 343.615C929.18 334.976 929.117 335.97 928.931 264.249L928.744 198.37L927.253 194.019C923.027 181.465 914.388 170.402 902.579 162.571C896.426 158.47 805.002 105.828 797.917 102.286C763.672 85.2567 712.086 85.2567 678.028 102.286C675.231 103.653 660.874 111.795 646.082 120.309C631.29 128.824 590.022 152.565 554.347 173.137C518.673 193.709 489.275 210.303 489.027 210.054C488.716 209.806 479.269 188.302 467.895 162.323C456.584 136.344 446.329 113.286 445.086 111.049C439.928 101.478 430.17 90.4773 421.469 84.2001C416.683 80.7819 298.907 13.2246 289.336 8.37694C276.408 1.91332 258.944 -1.19419 244.463 0.421718ZM216.371 46.6614C218.36 47.4694 338.87 116.891 340.362 118.072C341.48 118.942 341.294 121.242 340.051 122.422C339.43 122.92 330.107 128.513 319.355 134.728L299.777 146.164H291.698L230.479 110.8C196.793 91.3474 168.763 75.0019 168.204 74.5047C167.582 74.0075 167.085 72.9509 167.085 72.2051C167.085 71.4593 167.582 70.4028 168.204 69.9056C169.074 69.0976 202.325 49.7689 207.794 46.8479C210.093 45.6049 213.698 45.5427 216.371 46.6614ZM758.14 124.349C766.531 125.903 772.932 127.767 778.961 130.253C783.809 132.242 872.436 182.77 882.877 189.482C887.538 192.466 892.635 197.748 894.251 201.291C897.545 208.625 893.816 216.269 883.623 223.044C878.713 226.338 539.804 421.862 530.295 426.896C524.701 429.879 514.26 433.36 506.491 434.851C484.179 439.202 458.076 436.716 440.176 428.636C435.95 426.71 342.724 373.136 337.379 369.594C333.214 366.735 329.237 362.571 327.372 358.904C323.767 352.067 327.124 344.174 336.322 337.648C338.435 336.157 358.634 324.348 381.195 311.359C403.756 298.37 482.75 252.813 556.771 210.178C630.793 167.481 693.565 131.621 696.3 130.44C701.956 128.016 712.77 125.095 719.607 124.163C722.155 123.79 724.952 123.355 725.822 123.23C729.551 122.547 753.106 123.417 758.14 124.349ZM149.061 163.628C177.961 179.538 204.251 193.957 207.545 195.573C235.078 209.495 268.453 210.054 296.048 197.189C299.156 195.697 326.067 181.092 355.9 164.622C385.732 148.153 410.344 134.666 410.592 134.666C411.152 134.666 452.544 229.072 452.606 230.564C452.668 231.496 437.814 240.321 388.032 268.973C352.481 289.482 321.468 307.506 319.044 309.122C316.682 310.675 312.332 314.218 309.473 317.015C301.704 324.535 297.664 330.688 294.432 339.762C293.065 343.615 293.003 344.796 292.692 368.04L292.319 392.278L281.256 398.618C267.397 406.511 264.6 407.567 255.464 407.94C247.881 408.313 242.474 407.381 236.756 404.833C235.14 404.087 194.307 380.656 146.016 352.813C78.0228 313.596 57.3887 301.415 54.4055 298.742C44.0263 289.358 38.8677 273.82 41.7888 260.271C42.4725 256.978 49.7441 239.762 67.395 199.364C97.4139 130.751 95.6737 134.666 96.1709 134.666C96.4195 134.666 120.223 147.718 149.061 163.628Z" fill="#FAFAFA"></path>
<path d="M720.477 138.644C716.126 140.633 682.565 160.334 681.57 161.515C680.949 162.199 680.452 163.379 680.452 164.125C680.452 164.871 684.802 173.013 690.147 182.149C695.43 191.285 699.718 198.867 699.594 198.992C699.47 199.116 686.542 196.692 670.818 193.647C655.094 190.601 640.737 188.115 638.935 188.115C637.132 188.115 634.646 188.55 633.403 189.047C629.364 190.726 594.124 211.359 593.751 212.229C593.378 213.224 594.373 215.213 595.429 215.648C595.864 215.772 624.764 221.303 659.631 227.891L723.025 239.886L742.603 251.135C762.056 262.323 762.18 262.385 765.909 262.385C769.638 262.385 769.763 262.323 789.402 250.887C810.347 238.705 811.341 237.897 808.731 235.349C808.047 234.728 799.222 229.383 789.091 223.541L770.695 212.913L750.309 177.052C739.122 157.351 729.364 140.57 728.619 139.762C726.94 137.96 723.087 137.463 720.477 138.644Z" fill="#FAFAFA"></path>
<path d="M567.648 226.897C564.354 228.326 528.555 249.147 527.125 250.452C526.317 251.135 525.696 252.068 525.696 252.441C525.696 252.813 526.317 253.746 527.125 254.429C527.871 255.113 546.827 266.3 569.201 279.227C591.576 292.155 619.295 308.127 630.731 314.715C649.873 325.778 651.8 326.71 654.535 326.71C656.151 326.71 658.388 326.275 659.507 325.716C663.795 323.478 698.227 303.466 699.283 302.596C700.899 301.166 700.589 299.613 698.351 297.934C695.803 296.07 579.146 228.761 575.727 227.208C572.806 225.84 570.258 225.778 567.648 226.897Z" fill="#FAFAFA"></path>
<path d="M485.733 286.623C473.924 288.053 462.613 290.974 451.736 295.324C442.289 299.115 441.481 299.55 408.044 318.817C375.974 337.276 375.353 337.711 378.15 340.321C378.833 340.942 407.05 357.412 440.922 376.989C500.711 411.483 502.576 412.477 505.745 412.477C507.548 412.477 509.847 412.042 510.966 411.421C517.119 408.251 569.761 377.549 574.484 374.379C577.592 372.266 582.875 367.791 586.355 364.373C591.638 359.09 593.068 357.226 595.367 352.564C597.977 347.282 598.102 346.722 598.102 341.688C598.102 336.903 597.915 335.908 596.051 332.179C593.875 327.767 589.338 322.732 583.931 318.693C578.276 314.529 543.782 294.951 537.815 292.527C522.526 286.312 504.937 284.324 485.733 286.623ZM493.005 322.981C497.666 324.535 528.99 342.558 531.973 345.355C535.826 349.022 535.951 352.751 532.222 356.231C530.419 357.972 518.424 365.243 516.622 365.74C515.814 365.927 458.573 333.049 458.573 332.366C458.573 331.868 472.308 323.975 475.043 322.981C480.512 320.868 486.976 320.868 493.005 322.981Z" fill="#FAFAFA"></path>
</svg></svg></g></g><defs><clipPath id="SvgjsClipPath1239"><rect width="1000" height="1000" x="0" y="0" rx="350" ry="350"></rect></clipPath></defs></svg></g><g id="dark-icon"><svg xmlns="http://www.w3.org/2000/svg" version="1.1" xmlns:xlink="http://www.w3.org/1999/xlink" xmlns:svgjs="http://svgjs.dev/svgjs" width="1000" height="1000"><g><g transform="matrix(1.0764262648008611,0,0,1.0764262648008611,0,182.454251883746)" style="filter: invert(100%)"><svg xmlns="http://www.w3.org/2000/svg" version="1.1" xmlns:xlink="http://www.w3.org/1999/xlink" xmlns:svgjs="http://svgjs.dev/svgjs" width="929" height="590"><svg width="929" height="590" viewBox="0 0 929 590" fill="none" xmlns="http://www.w3.org/2000/svg">
<path d="M244.463 0.421718C237.813 1.22967 228.614 3.59138 222.213 6.20168C215.501 8.93629 90.5773 80.2225 84.4243 84.8216C74.9152 91.9067 66.587 101.726 61.3042 112.043C57.7616 118.88 5.92774 237.152 4.18752 242.434C0.396314 253.684 -0.971006 268.6 0.707069 279.787C2.6959 292.403 7.35722 304.46 14.1938 314.653C18.2958 320.619 26.624 329.382 32.5905 333.857C36.506 336.84 208.478 436.529 217.614 441.191C234.332 449.643 257.95 451.508 276.657 445.976C280.2 444.92 283.245 443.739 291.822 440.01C292.381 439.823 292.63 444.857 292.754 461.079L292.941 482.396L294.867 487.803C295.924 490.786 298.161 495.385 299.839 498.058C303.258 503.589 311.524 512.166 317.49 516.33C323.022 520.246 419.107 575.559 425.384 578.48C435.515 583.204 446.951 586.498 460.748 588.797C471.189 590.537 497.044 590.351 507.672 588.486C521.407 586.125 534.273 582.209 543.409 577.61C548.94 574.876 896.985 374.255 901.709 371.085C913.02 363.627 921.473 353.87 925.637 343.615C929.18 334.976 929.117 335.97 928.931 264.249L928.744 198.37L927.253 194.019C923.027 181.465 914.388 170.402 902.579 162.571C896.426 158.47 805.002 105.828 797.917 102.286C763.672 85.2567 712.086 85.2567 678.028 102.286C675.231 103.653 660.874 111.795 646.082 120.309C631.29 128.824 590.022 152.565 554.347 173.137C518.673 193.709 489.275 210.303 489.027 210.054C488.716 209.806 479.269 188.302 467.895 162.323C456.584 136.344 446.329 113.286 445.086 111.049C439.928 101.478 430.17 90.4773 421.469 84.2001C416.683 80.7819 298.907 13.2246 289.336 8.37694C276.408 1.91332 258.944 -1.19419 244.463 0.421718ZM216.371 46.6614C218.36 47.4694 338.87 116.891 340.362 118.072C341.48 118.942 341.294 121.242 340.051 122.422C339.43 122.92 330.107 128.513 319.355 134.728L299.777 146.164H291.698L230.479 110.8C196.793 91.3474 168.763 75.0019 168.204 74.5047C167.582 74.0075 167.085 72.9509 167.085 72.2051C167.085 71.4593 167.582 70.4028 168.204 69.9056C169.074 69.0976 202.325 49.7689 207.794 46.8479C210.093 45.6049 213.698 45.5427 216.371 46.6614ZM758.14 124.349C766.531 125.903 772.932 127.767 778.961 130.253C783.809 132.242 872.436 182.77 882.877 189.482C887.538 192.466 892.635 197.748 894.251 201.291C897.545 208.625 893.816 216.269 883.623 223.044C878.713 226.338 539.804 421.862 530.295 426.896C524.701 429.879 514.26 433.36 506.491 434.851C484.179 439.202 458.076 436.716 440.176 428.636C435.95 426.71 342.724 373.136 337.379 369.594C333.214 366.735 329.237 362.571 327.372 358.904C323.767 352.067 327.124 344.174 336.322 337.648C338.435 336.157 358.634 324.348 381.195 311.359C403.756 298.37 482.75 252.813 556.771 210.178C630.793 167.481 693.565 131.621 696.3 130.44C701.956 128.016 712.77 125.095 719.607 124.163C722.155 123.79 724.952 123.355 725.822 123.23C729.551 122.547 753.106 123.417 758.14 124.349ZM149.061 163.628C177.961 179.538 204.251 193.957 207.545 195.573C235.078 209.495 268.453 210.054 296.048 197.189C299.156 195.697 326.067 181.092 355.9 164.622C385.732 148.153 410.344 134.666 410.592 134.666C411.152 134.666 452.544 229.072 452.606 230.564C452.668 231.496 437.814 240.321 388.032 268.973C352.481 289.482 321.468 307.506 319.044 309.122C316.682 310.675 312.332 314.218 309.473 317.015C301.704 324.535 297.664 330.688 294.432 339.762C293.065 343.615 293.003 344.796 292.692 368.04L292.319 392.278L281.256 398.618C267.397 406.511 264.6 407.567 255.464 407.94C247.881 408.313 242.474 407.381 236.756 404.833C235.14 404.087 194.307 380.656 146.016 352.813C78.0228 313.596 57.3887 301.415 54.4055 298.742C44.0263 289.358 38.8677 273.82 41.7888 260.271C42.4725 256.978 49.7441 239.762 67.395 199.364C97.4139 130.751 95.6737 134.666 96.1709 134.666C96.4195 134.666 120.223 147.718 149.061 163.628Z" fill="#FAFAFA"></path>
<path d="M720.477 138.644C716.126 140.633 682.565 160.334 681.57 161.515C680.949 162.199 680.452 163.379 680.452 164.125C680.452 164.871 684.802 173.013 690.147 182.149C695.43 191.285 699.718 198.867 699.594 198.992C699.47 199.116 686.542 196.692 670.818 193.647C655.094 190.601 640.737 188.115 638.935 188.115C637.132 188.115 634.646 188.55 633.403 189.047C629.364 190.726 594.124 211.359 593.751 212.229C593.378 213.224 594.373 215.213 595.429 215.648C595.864 215.772 624.764 221.303 659.631 227.891L723.025 239.886L742.603 251.135C762.056 262.323 762.18 262.385 765.909 262.385C769.638 262.385 769.763 262.323 789.402 250.887C810.347 238.705 811.341 237.897 808.731 235.349C808.047 234.728 799.222 229.383 789.091 223.541L770.695 212.913L750.309 177.052C739.122 157.351 729.364 140.57 728.619 139.762C726.94 137.96 723.087 137.463 720.477 138.644Z" fill="#FAFAFA"></path>
<path d="M567.648 226.897C564.354 228.326 528.555 249.147 527.125 250.452C526.317 251.135 525.696 252.068 525.696 252.441C525.696 252.813 526.317 253.746 527.125 254.429C527.871 255.113 546.827 266.3 569.201 279.227C591.576 292.155 619.295 308.127 630.731 314.715C649.873 325.778 651.8 326.71 654.535 326.71C656.151 326.71 658.388 326.275 659.507 325.716C663.795 323.478 698.227 303.466 699.283 302.596C700.899 301.166 700.589 299.613 698.351 297.934C695.803 296.07 579.146 228.761 575.727 227.208C572.806 225.84 570.258 225.778 567.648 226.897Z" fill="#FAFAFA"></path>
<path d="M485.733 286.623C473.924 288.053 462.613 290.974 451.736 295.324C442.289 299.115 441.481 299.55 408.044 318.817C375.974 337.276 375.353 337.711 378.15 340.321C378.833 340.942 407.05 357.412 440.922 376.989C500.711 411.483 502.576 412.477 505.745 412.477C507.548 412.477 509.847 412.042 510.966 411.421C517.119 408.251 569.761 377.549 574.484 374.379C577.592 372.266 582.875 367.791 586.355 364.373C591.638 359.09 593.068 357.226 595.367 352.564C597.977 347.282 598.102 346.722 598.102 341.688C598.102 336.903 597.915 335.908 596.051 332.179C593.875 327.767 589.338 322.732 583.931 318.693C578.276 314.529 543.782 294.951 537.815 292.527C522.526 286.312 504.937 284.324 485.733 286.623ZM493.005 322.981C497.666 324.535 528.99 342.558 531.973 345.355C535.826 349.022 535.951 352.751 532.222 356.231C530.419 357.972 518.424 365.243 516.622 365.74C515.814 365.927 458.573 333.049 458.573 332.366C458.573 331.868 472.308 323.975 475.043 322.981C480.512 320.868 486.976 320.868 493.005 322.981Z" fill="#FAFAFA"></path>
</svg></svg></g></g></svg></g></svg>